<svg xmlns="http://www.w3.org/2000/svg" width="24" height="24" fill="none" viewBox="0 0 24 24" id="verify">
  <path fill="#000" d="M15.7071 10.7071C16.0976 10.3166 16.0976 9.68342 15.7071 9.29289C15.3166 8.90237 14.6834 8.90237 14.2929 9.29289L11 12.5858L9.70711 11.2929C9.31658 10.9024 8.68342 10.9024 8.29289 11.2929C7.90237 11.6834 7.90237 12.3166 8.29289 12.7071L10.2929 14.7071C10.6834 15.0976 11.3166 15.0976 11.7071 14.7071L15.7071 10.7071Z"></path>
  <path fill="#000" fill-rule="evenodd" d="M12.3363 2.05826C12.1188 1.98058 11.8812 1.98058 11.6637 2.05826L4.66366 4.55826C4.26567 4.7004 4 5.07739 4 5.5V14.3162C4 16.0175 4.8651 17.6021 6.29621 18.5221L11.4592 21.8412C11.7887 22.0529 12.2114 22.0529 12.5408 21.8412L17.7038 18.5221C19.1349 17.6021 20 16.0175 20 14.3162V5.5C20 5.07739 19.7343 4.7004 19.3363 4.55826L12.3363 2.05826ZM6 14.3162V6.20472L12 4.06186L18 6.20472V14.3162C18 15.337 17.4809 16.2877 16.6223 16.8397L12 19.8112L7.37773 16.8397C6.51906 16.2877 6 15.337 6 14.3162Z" clip-rule="evenodd"></path>
</svg>
