<svg xmlns="http://www.w3.org/2000/svg" viewBox="0 0 64 64" id="blocked">
  <path d="M43 37H21c-4.189.054-4.189-8.054 0-8h22c4.188-.054 4.189 8.054 0 8Zm-22-6c-1.502 0-1.504 3.999 0 4h22c1.461.191 1.464-4.189 0-4Zm11 21c-26.669-.471-26.665-39.532 0-40 26.669.471 26.665 39.532 0 40Zm0-38c-24.002.424-23.998 35.579 0 36 24.002-.424 23.998-35.58 0-36Zm24.5 2.123-23-13.28a3.008 3.008 0 0 0-3 0l-23 13.28A3.01 3.01 0 0 0 6 18.72V45.28a3.01 3.01 0 0 0 1.5 2.598l23 13.28a3.01 3.01 0 0 0 3 0l23-13.28A3.01 3.01 0 0 0 58 45.28V18.72a3.01 3.01 0 0 0-1.5-2.598ZM56 45.279a1.002 1.002 0 0 1-.5.866l-23 13.279a1 1 0 0 1-1 0l-23-13.279a1.002 1.002 0 0 1-.5-.866V18.721a1.002 1.002 0 0 1 .5-.866l23-13.279a1 1 0 0 1 1 0l23 13.279a1.002 1.002 0 0 1 .5.866Z"></path>
</svg>
