<svg xmlns="http://www.w3.org/2000/svg" viewBox="0 0 24 24" id="approval">
  <g>
    <path d="M21,22.75H7A1.75213,1.75213,0,0,1,5.25,21V18a.75.75,0,0,1,1.5,0v3a.253.253,0,0,0,.25.25H21a.253.253,0,0,0,.25-.25V8.35986a.25064.25064,0,0,0-.05566-.1582L16.72363,2.84033A.24255.24255,0,0,0,16.53027,2.75H7A.253.253,0,0,0,6.75,3v7a.75.75,0,0,1-1.5,0V3A1.75213,1.75213,0,0,1,7,1.25h9.53027a1.74252,1.74252,0,0,1,1.34864.63281L22.3457,7.23975A1.74707,1.74707,0,0,1,22.75,8.35986V21A1.75213,1.75213,0,0,1,21,22.75Z"></path>
    <path d="M21.92969 8.75H18A1.75213 1.75213 0 0116.25 7V2.12012a.75.75 0 011.5 0V7a.253.253 0 00.25.25h3.92969a.75.75 0 010 1.5zM14 9.75H10a.75.75 0 010-1.5h4a.75.75 0 010 1.5zM18 13.75H12a.75.75 0 010-1.5h6a.75.75 0 010 1.5zM18 17.75H12a.75.75 0 010-1.5h6a.75.75 0 010 1.5zM5.62305 16.0874A.746.746 0 015.125 15.898L3.99316 14.89209a.74984.74984 0 11.9961-1.12109l.58789.522 1.38574-1.47022a.75025.75025 0 011.0918 1.0293l-1.88574 2A.74894.74894 0 015.62305 16.0874z"></path>
    <path d="M6,18.75A4.75,4.75,0,1,1,10.75,14,4.7554,4.7554,0,0,1,6,18.75Zm0-8A3.25,3.25,0,1,0,9.25,14,3.25377,3.25377,0,0,0,6,10.75Z"></path>
  </g>
</svg>
