<svg xmlns="http://www.w3.org/2000/svg" viewBox="0 0 24 24" id="brain-memory">
  <g fill-rule="evenodd">
    <path d="M8.439 5.115a2.414 2.414 0 0 1 1.073 2.01.75.75 0 1 1-1.5 0 .917.917 0 0 0-.71-.892 2.053 2.053 0 0 0-.088-.002c-1.138 0-2.107.965-2.107 2.213v.815a.75.75 0 0 1-.595.734c-1.273.268-2.262 1.447-2.262 2.896 0 1.448.99 2.628 2.262 2.896a.75.75 0 0 1 .595.733v.815c0 1.179.864 2.105 1.918 2.204a.77.77 0 0 1 .07-.003c.507 0 .917-.41.917-.916a.75.75 0 0 1 1.5 0c0 .847-.436 1.592-1.096 2.023.252.243.585.387.941.387.744 0 1.393-.633 1.393-1.472V6.222c0-.839-.65-1.472-1.393-1.472-.346 0-.67.135-.918.365Zm3.061-.89a2.841 2.841 0 0 0-2.143-.975c-1.088 0-2.02.613-2.514 1.5-1.838.193-3.236 1.796-3.236 3.694v.253C1.93 9.32.75 10.973.75 12.89c0 1.916 1.179 3.57 2.857 4.191v.253c0 1.9 1.398 3.502 3.236 3.694.494.888 1.426 1.5 2.514 1.5.858 0 1.618-.379 2.143-.975a2.842 2.842 0 0 0 2.143.976c1.088 0 2.02-.613 2.514-1.5 1.838-.193 3.236-1.796 3.236-3.695v-.253c1.678-.622 2.857-2.275 2.857-4.191s-1.179-3.57-2.857-4.192v-.253c0-1.898-1.398-3.501-3.236-3.693-.494-.888-1.426-1.501-2.514-1.501-.858 0-1.618.38-2.143.976Zm2.997.834a1.345 1.345 0 0 0-.854-.309c-.744 0-1.393.633-1.393 1.472v13.334c0 .839.65 1.472 1.393 1.472.328 0 .636-.122.878-.33a2.416 2.416 0 0 1-1.186-2.08.75.75 0 1 1 1.5 0c0 .506.41.916.917.916.042 0 .083.004.123.01 1.1-.049 2.018-.995 2.018-2.21v-.815a.75.75 0 0 1 .595-.734c1.273-.268 2.262-1.448 2.262-2.896 0-1.449-.99-2.628-2.262-2.896a.75.75 0 0 1-.595-.734v-.815c0-1.248-.969-2.212-2.107-2.212l-.089.001a.752.752 0 0 1-.133-.006.917.917 0 0 0-.729.898.75.75 0 0 1-1.5 0c0-.875.465-1.642 1.162-2.066Z"></path>
    <path d="M13.528 11.222a.75.75 0 0 1 .75-.75c1.789 0 2.972 1.744 2.972 3.528 0 .353-.043.696-.125 1.02a.75.75 0 0 1-1.455-.367 2.67 2.67 0 0 0 .08-.653c0-1.285-.807-2.028-1.472-2.028a.75.75 0 0 1-.75-.75zm-4.056 0a.75.75 0 0 0-.75-.75c-1.789 0-2.972 1.744-2.972 3.528 0 .353.043.696.125 1.02a.75.75 0 1 0 1.455-.367A2.67 2.67 0 0 1 7.25 14c0-1.285.807-2.028 1.472-2.028a.75.75 0 0 0 .75-.75zm9.998-6.631a.75.75 0 0 1 0-1.06l1.06-1.061a.75.75 0 0 1 1.061 1.06l-1.06 1.06a.75.75 0 0 1-1.061 0zm.988 1.901a.75.75 0 0 1 .75-.75h1.5a.75.75 0 0 1 0 1.5h-1.5a.75.75 0 0 1-.75-.75zM17.716 3.75a.75.75 0 0 1-.75-.75V1.5a.75.75 0 0 1 1.5 0V3a.75.75 0 0 1-.75.75z"></path>
  </g>
</svg>
